<svg xmlns="http://www.w3.org/2000/svg" aria-labelledby="title desc" role="img" viewBox="0 0 512 512"><title id="title">OWL Analysis System sigil</title><desc id="desc">A sharp geometric owl sigil with luminous eyes and document-scan lines.</desc><defs><linearGradient id="bg" x1="86" x2="426" y1="38" y2="474" gradientUnits="userSpaceOnUse"><stop offset="0" stop-color="#111827"/><stop offset=".45" stop-color="#07080c"/><stop offset="1" stop-color="#02030a"/></linearGradient><linearGradient id="stroke" x1="116" x2="398" y1="74" y2="438" gradientUnits="userSpaceOnUse"><stop offset="0" stop-color="#f7fbff"/><stop offset=".34" stop-color="#8ea7ff"/><stop offset=".68" stop-color="#06b6d4"/><stop offset="1" stop-color="#d7b46a"/></linearGradient><linearGradient id="steel" x1="145" x2="368" y1="93" y2="398" gradientUnits="userSpaceOnUse"><stop offset="0" stop-color="#f4f7ff"/><stop offset=".18" stop-color="#aeb8ce"/><stop offset=".44" stop-color="#344055"/><stop offset=".72" stop-color="#d9e1f2"/><stop offset="1" stop-color="#1a2231"/></linearGradient><radialGradient id="eye" cx="50%" cy="50%" r="62%"><stop offset="0" stop-color="#fff"/><stop offset=".24" stop-color="#bdf7ff"/><stop offset=".7" stop-color="#06b6d4"/><stop offset="1" stop-color="#173b78"/></radialGradient><filter id="glow" width="160%" height="160%" x="-30%" y="-30%"><feDropShadow dx="0" dy="14" flood-color="#000" flood-opacity=".55" stdDeviation="20"/><feDropShadow dx="0" dy="0" flood-color="#06b6d4" flood-opacity=".35" stdDeviation="9"/></filter></defs><rect width="512" height="512" fill="url(#bg)" rx="112"/><path fill="none" stroke="#fff" stroke-opacity=".08" stroke-width="2" d="M82 255C82 160 159 83 256 83s174 77 174 172-77 174-174 174S82 350 82 255Z"/><path fill="none" stroke="#8ea7ff" stroke-dasharray="7 15" stroke-opacity=".16" stroke-width="1.5" d="M117 255c0-77 62-139 139-139s139 62 139 139-62 139-139 139-139-62-139-139Z"/><g filter="url(#glow)"><path fill="#080b12" stroke="url(#stroke)" stroke-linejoin="round" stroke-width="9" d="M256 64 402 118 360 189 430 218 343 284 319 410 256 337 193 410 169 284 82 218 152 189 110 118Z"/><path fill="url(#steel)" fill-opacity=".92" d="M256 95 366 136 324 203 380 224 308 272 293 356 256 303 219 356 204 272 132 224 188 203 146 136Z"/><path fill="#06070b" fill-opacity=".82" stroke="#fff" stroke-opacity=".13" stroke-width="3" d="M256 123c-28 50-68 78-123 83 50 22 79 49 99 86 9-33 17-58 24-75 7 17 15 42 24 75 20-37 49-64 99-86-55-5-95-33-123-83Z"/><path fill="#0b1220" stroke="#8ea7ff" stroke-opacity=".28" stroke-width="3" d="M151 215c37-19 72-14 101 15-34 28-68 39-103 32-6-18-5-34 2-47Z"/><path fill="#0b1220" stroke="#8ea7ff" stroke-opacity=".28" stroke-width="3" d="M361 215c-37-19-72-14-101 15 34 28 68 39 103 32 6-18 5-34-2-47Z"/><path fill="url(#eye)" d="M177 227c24-9 44-5 61 13-22 15-43 21-64 16-4-11-3-21 3-29Z"/><path fill="url(#eye)" d="M335 227c-24-9-44-5-61 13 22 15 43 21 64 16 4-11 3-21-3-29Z"/><path fill="#d7b46a" stroke="#07080c" stroke-linejoin="round" stroke-width="5" d="M256 238 282 286 256 313 230 286Z"/><path stroke="#c7d2ff" stroke-linecap="round" stroke-opacity=".36" stroke-width="8" d="M198 319h116M212 346h88M230 374h52"/><path stroke="#fff" stroke-linecap="round" stroke-opacity=".28" stroke-width="7" d="M151 147 218 193M361 147 294 193"/></g></svg>