<svg xmlns="http://www.w3.org/2000/svg" viewBox="0 0 512 512" role="img" aria-labelledby="title desc">
  <title id="title">OWL Analysis System sigil</title>
  <desc id="desc">A sharp geometric owl sigil with luminous eyes and document-scan lines.</desc>
  <defs>
    <linearGradient id="bg" x1="86" y1="38" x2="426" y2="474" gradientUnits="userSpaceOnUse">
      <stop offset="0" stop-color="#111827"/>
      <stop offset="0.45" stop-color="#07080c"/>
      <stop offset="1" stop-color="#02030a"/>
    </linearGradient>
    <linearGradient id="stroke" x1="116" y1="74" x2="398" y2="438" gradientUnits="userSpaceOnUse">
      <stop offset="0" stop-color="#f7fbff"/>
      <stop offset="0.34" stop-color="#8ea7ff"/>
      <stop offset="0.68" stop-color="#06b6d4"/>
      <stop offset="1" stop-color="#d7b46a"/>
    </linearGradient>
    <linearGradient id="steel" x1="145" y1="93" x2="368" y2="398" gradientUnits="userSpaceOnUse">
      <stop offset="0" stop-color="#f4f7ff"/>
      <stop offset="0.18" stop-color="#aeb8ce"/>
      <stop offset="0.44" stop-color="#344055"/>
      <stop offset="0.72" stop-color="#d9e1f2"/>
      <stop offset="1" stop-color="#1a2231"/>
    </linearGradient>
    <radialGradient id="eye" cx="50%" cy="50%" r="62%">
      <stop offset="0" stop-color="#ffffff"/>
      <stop offset="0.24" stop-color="#bdf7ff"/>
      <stop offset="0.7" stop-color="#06b6d4"/>
      <stop offset="1" stop-color="#173b78"/>
    </radialGradient>
    <filter id="glow" x="-30%" y="-30%" width="160%" height="160%">
      <feDropShadow dx="0" dy="14" stdDeviation="20" flood-color="#000000" flood-opacity="0.55"/>
      <feDropShadow dx="0" dy="0" stdDeviation="9" flood-color="#06b6d4" flood-opacity="0.35"/>
    </filter>
  </defs>

  <rect width="512" height="512" rx="112" fill="url(#bg)"/>
  <path d="M82 255C82 160 159 83 256 83s174 77 174 172-77 174-174 174S82 350 82 255Z" fill="none" stroke="#ffffff" stroke-opacity="0.08" stroke-width="2"/>
  <path d="M117 255c0-77 62-139 139-139s139 62 139 139-62 139-139 139-139-62-139-139Z" fill="none" stroke="#8ea7ff" stroke-opacity="0.16" stroke-width="1.5" stroke-dasharray="7 15"/>
  <g filter="url(#glow)">
    <path d="M256 64 402 118 360 189 430 218 343 284 319 410 256 337 193 410 169 284 82 218 152 189 110 118Z" fill="#080b12" stroke="url(#stroke)" stroke-width="9" stroke-linejoin="round"/>
    <path d="M256 95 366 136 324 203 380 224 308 272 293 356 256 303 219 356 204 272 132 224 188 203 146 136Z" fill="url(#steel)" fill-opacity="0.92"/>
    <path d="M256 123c-28 50-68 78-123 83 50 22 79 49 99 86 9-33 17-58 24-75 7 17 15 42 24 75 20-37 49-64 99-86-55-5-95-33-123-83Z" fill="#06070b" fill-opacity="0.82" stroke="#ffffff" stroke-opacity="0.13" stroke-width="3"/>
    <path d="M151 215c37-19 72-14 101 15-34 28-68 39-103 32-6-18-5-34 2-47Z" fill="#0b1220" stroke="#8ea7ff" stroke-opacity="0.28" stroke-width="3"/>
    <path d="M361 215c-37-19-72-14-101 15 34 28 68 39 103 32 6-18 5-34-2-47Z" fill="#0b1220" stroke="#8ea7ff" stroke-opacity="0.28" stroke-width="3"/>
    <path d="M177 227c24-9 44-5 61 13-22 15-43 21-64 16-4-11-3-21 3-29Z" fill="url(#eye)"/>
    <path d="M335 227c-24-9-44-5-61 13 22 15 43 21 64 16 4-11 3-21-3-29Z" fill="url(#eye)"/>
    <path d="M256 238 282 286 256 313 230 286Z" fill="#d7b46a" stroke="#07080c" stroke-width="5" stroke-linejoin="round"/>
    <path d="M198 319h116M212 346h88M230 374h52" stroke="#c7d2ff" stroke-opacity="0.36" stroke-width="8" stroke-linecap="round"/>
    <path d="M151 147 218 193M361 147 294 193" stroke="#ffffff" stroke-opacity="0.28" stroke-width="7" stroke-linecap="round"/>
  </g>
</svg>
